<svg viewBox="0 0 320 540" xmlns="http://www.w3.org/2000/svg">
  <defs>
    <linearGradient id="trGrad" x1="0.2" y1="0" x2="0.8" y2="1">
      <stop offset="0%" stop-color="#FAFAFA"/>
      <stop offset="50%" stop-color="#EFEFEF"/>
      <stop offset="100%" stop-color="#E0E0E0"/>
    </linearGradient>
    <linearGradient id="trShine" x1="0" y1="0" x2="0.5" y2="1">
      <stop offset="0%" stop-color="rgba(255,255,255,0.9)"/>
      <stop offset="100%" stop-color="rgba(255,255,255,0)"/>
    </linearGradient>
    <filter id="shadow3">
      <feDropShadow dx="0" dy="6" stdDeviation="12" flood-color="rgba(0,0,0,0.22)"/>
    </filter>
    <clipPath id="trClip">
      <path d="M160,28 C205,28 268,62 278,128 L278,210 C278,262 265,292 258,322 C252,352 260,378 268,408 C276,438 248,476 205,488 C176,496 144,496 115,488 C72,476 44,438 52,408 C60,378 68,352 62,322 C55,292 42,262 42,210 L42,128 C52,62 115,28 160,28 Z"/>
    </clipPath>
  </defs>

  <!-- Background -->
  <rect width="320" height="540" fill="#F0F0F0"/>

  <!-- Shadow -->
  <ellipse cx="161" cy="512" rx="112" ry="14" fill="rgba(0,0,0,0.12)"/>

  <!-- Sole body -->
  <path d="M160,28 C205,28 268,62 278,128 L278,210 C278,262 265,292 258,322 C252,352 260,378 268,408 C276,438 248,476 205,488 C176,496 144,496 115,488 C72,476 44,438 52,408 C60,378 68,352 62,322 C55,292 42,262 42,210 L42,128 C52,62 115,28 160,28 Z"
    fill="url(#trGrad)" filter="url(#shadow3)"/>

  <!-- Honeycomb / hexagonal lightweight tread -->
  <g clip-path="url(#trClip)" fill="none" stroke="#BDBDBD" stroke-width="2">
    <!-- Hex grid row 1 (toe) -->
    <polygon points="115,48 130,40 145,48 145,64 130,72 115,64"/>
    <polygon points="145,48 160,40 175,48 175,64 160,72 145,64"/>
    <polygon points="175,48 190,40 205,48 205,64 190,72 175,64"/>

    <!-- Row 2 -->
    <polygon points="100,76 115,68 130,76 130,92 115,100 100,92"/>
    <polygon points="130,76 145,68 160,76 160,92 145,100 130,92"/>
    <polygon points="160,76 175,68 190,76 190,92 175,100 160,92"/>
    <polygon points="190,76 205,68 220,76 220,92 205,100 190,92"/>

    <!-- Row 3 -->
    <polygon points="85,104 100,96 115,104 115,120 100,128 85,120"/>
    <polygon points="115,104 130,96 145,104 145,120 130,128 115,120"/>
    <polygon points="145,104 160,96 175,104 175,120 160,128 145,120"/>
    <polygon points="175,104 190,96 205,104 205,120 190,128 175,120"/>
    <polygon points="205,104 220,96 235,104 235,120 220,128 205,120"/>

    <!-- Row 4 -->
    <polygon points="70,132 85,124 100,132 100,148 85,156 70,148"/>
    <polygon points="100,132 115,124 130,132 130,148 115,156 100,148"/>
    <polygon points="130,132 145,124 160,132 160,148 145,156 130,148"/>
    <polygon points="160,132 175,124 190,132 190,148 175,156 160,148"/>
    <polygon points="190,132 205,124 220,132 220,148 205,156 190,148"/>
    <polygon points="220,132 235,124 250,132 250,148 235,156 220,148"/>

    <!-- Row 5 (waist) -->
    <polygon points="72,162 87,154 102,162 102,178 87,186 72,178"/>
    <polygon points="102,162 117,154 132,162 132,178 117,186 102,178"/>
    <polygon points="132,162 147,154 162,162 162,178 147,186 132,178"/>
    <polygon points="162,162 177,154 192,162 192,178 177,186 162,178"/>
    <polygon points="192,162 207,154 222,162 222,178 207,186 192,178"/>
    <polygon points="222,162 237,154 252,162 252,178 237,186 222,178"/>

    <!-- Row 6 -->
    <polygon points="72,192 87,184 102,192 102,208 87,216 72,208"/>
    <polygon points="102,192 117,184 132,192 132,208 117,216 102,208"/>
    <polygon points="132,192 147,184 162,192 162,208 147,216 132,208"/>
    <polygon points="162,192 177,184 192,192 192,208 177,216 162,208"/>
    <polygon points="192,192 207,184 222,192 222,208 207,216 192,208"/>
    <polygon points="222,192 237,184 252,192 252,208 237,216 222,208"/>

    <!-- Row 7 -->
    <polygon points="74,222 90,214 106,222 106,238 90,246 74,238"/>
    <polygon points="106,222 122,214 138,222 138,238 122,246 106,238"/>
    <polygon points="138,222 154,214 170,222 170,238 154,246 138,238"/>
    <polygon points="170,222 186,214 202,222 202,238 186,246 170,238"/>
    <polygon points="202,222 218,214 234,222 234,238 218,246 202,238"/>

    <!-- Row 8 -->
    <polygon points="78,252 94,244 110,252 110,268 94,276 78,268"/>
    <polygon points="110,252 126,244 142,252 142,268 126,276 110,268"/>
    <polygon points="142,252 158,244 174,252 174,268 158,276 142,268"/>
    <polygon points="174,252 190,244 206,252 206,268 190,276 174,268"/>
    <polygon points="206,252 222,244 238,252 238,268 222,276 206,268"/>

    <!-- Row 9 -->
    <polygon points="80,282 96,274 112,282 112,298 96,306 80,298"/>
    <polygon points="112,282 128,274 144,282 144,298 128,306 112,298"/>
    <polygon points="144,282 160,274 176,282 176,298 160,306 144,298"/>
    <polygon points="176,282 192,274 208,282 208,298 192,306 176,298"/>
    <polygon points="208,282 224,274 240,282 240,298 224,306 208,298"/>

    <!-- Row 10 - heel -->
    <polygon points="84,312 100,304 116,312 116,328 100,336 84,328"/>
    <polygon points="116,312 132,304 148,312 148,328 132,336 116,328"/>
    <polygon points="148,312 164,304 180,312 180,328 164,336 148,328"/>
    <polygon points="180,312 196,304 212,312 212,328 196,336 180,328"/>
    <polygon points="212,312 228,304 244,312 244,328 228,336 212,328"/>

    <polygon points="92,342 108,334 124,342 124,358 108,366 92,358"/>
    <polygon points="124,342 140,334 156,342 156,358 140,366 124,358"/>
    <polygon points="156,342 172,334 188,342 188,358 172,366 156,358"/>
    <polygon points="188,342 204,334 220,342 220,358 204,366 188,358"/>

    <polygon points="100,372 116,364 132,372 132,388 116,396 100,388"/>
    <polygon points="132,372 148,364 164,372 164,388 148,396 132,388"/>
    <polygon points="164,372 180,364 196,372 196,388 180,396 164,388"/>

    <polygon points="108,402 124,394 140,402 140,418 124,426 108,418"/>
    <polygon points="140,402 156,394 172,402 172,418 156,426 140,418"/>
    <polygon points="172,402 188,394 204,402 204,418 188,426 172,418"/>

    <polygon points="116,432 132,424 148,432 148,448 132,456 116,448"/>
    <polygon points="148,432 164,424 180,432 180,448 164,456 148,448"/>
    <polygon points="116,460 132,452 148,460 148,476 132,484 116,476"/>
  </g>

  <!-- Shine -->
  <path d="M160,28 C195,28 252,55 265,110 L265,230 C250,210 244,185 242,158 C238,126 246,98 240,70 C230,48 196,32 160,30 Z"
    fill="url(#trShine)" opacity="0.7"/>

  <!-- Outer border -->
  <path d="M160,28 C205,28 268,62 278,128 L278,210 C278,262 265,292 258,322 C252,352 260,378 268,408 C276,438 248,476 205,488 C176,496 144,496 115,488 C72,476 44,438 52,408 C60,378 68,352 62,322 C55,292 42,262 42,210 L42,128 C52,62 115,28 160,28 Z"
    fill="none" stroke="#BDBDBD" stroke-width="4"/>

  <!-- Label badge -->
  <rect x="88" y="500" width="144" height="28" rx="14" fill="#555" opacity="0.8"/>
  <text x="160" y="519" text-anchor="middle" font-family="system-ui,sans-serif" font-size="12" font-weight="800" fill="#fff" letter-spacing="2">TR LIGHT</text>
</svg>
